# xmcd
#
# Track frame offsets: 
#        151
#        17235
#        37243
#        52760
#        68214
#        86231
#        106555
#        127764
#        147517
#        171987
#        191708
#        209629
#        229744
#        248797
#        263792
#        288184
#        308523
#        328991
#
# Disc length: 4601 seconds
#
# Revision: 2
# Processed by: cddbd v1.5.1PL0 Copyright (c) Steve Scherf et al.
# Submitted via: ExactAudioCopy v0.95a5
#
DISCID=0811f712
DTITLE=Various Artist - 蓝调经典精选disc1
DYEAR=2004
DGENRE=Blues
TTITLE0=Blue - All Rise
TTITLE1=Jeenifer Lopez - If You Had My Love
TTITLE2=Pink - There You Go
TTITLE3=Craig David - Walking Away
TTITLE4=Destiny's Child - Emotions
TTITLE5=Mary J Blige - Family Affair
TTITLE6=TLC - Unpretty
TTITLE7=Santana Feat. The Product G&B - Maria Maria
TTITLE8=R Kelly - I Believe I Can Fly
TTITLE9=The Fugees - No Woman, No Cry
TTITLE10=Macy Gray - I Try
TTITLE11=Sisqo - Close Your Eyes
TTITLE12=Monica - Angel Of Mine
TTITLE13=Az Yet - Hard To Say I'm Sorry
TTITLE14=K-Ci and Jojo - All My Life
TTITLE15=Angie Stone - Brotha
TTITLE16=Toni Braxton - Unbreak My Heart
TTITLE17=Alicia Keys - Fallin'
EXTD=
EXTT0=
EXTT1=
EXTT2=
EXTT3=
EXTT4=
EXTT5=
EXTT6=
EXTT7=
EXTT8=
EXTT9=
EXTT10=
EXTT11=
EXTT12=
EXTT13=
EXTT14=
EXTT15=
EXTT16=
EXTT17=
PLAYORDER=
